<mxfile host="app.diagrams.net" agent="Mozilla/5.0 (Windows NT 10.0; Win64; x64; rv:128.0) Gecko/20100101 Firefox/128.0" version="26.0.6">
  <diagram name="Page-1" id="E8PTVJiMz3i3rZZgdMsj">
    <mxGraphModel dx="1050" dy="558" grid="1" gridSize="10" guides="1" tooltips="1" connect="1" arrows="1" fold="1" page="1" pageScale="1" pageWidth="850" pageHeight="1100" math="0" shadow="0">
      <root>
        <mxCell id="0" />
        <mxCell id="1" parent="0" />
        <mxCell id="qA517OyjisjvjETu6iN_-1" value="" style="rounded=0;whiteSpace=wrap;html=1;fillColor=none;dashed=1;strokeWidth=1;" vertex="1" parent="1">
          <mxGeometry x="40" y="40" width="320" height="520" as="geometry" />
        </mxCell>
        <mxCell id="qA517OyjisjvjETu6iN_-2" value="" style="image;aspect=fixed;html=1;points=[];align=center;fontSize=12;image=img/lib/azure2/networking/Virtual_Networks.svg;" vertex="1" parent="1">
          <mxGeometry x="43" y="16" width="33.5" height="20" as="geometry" />
        </mxCell>
        <mxCell id="qA517OyjisjvjETu6iN_-3" value="&lt;font style=&quot;font-size: 14px;&quot;&gt;Azure Virtual Network&lt;/font&gt;" style="text;html=1;align=center;verticalAlign=middle;whiteSpace=wrap;rounded=0;" vertex="1" parent="1">
          <mxGeometry x="79.5" y="10" width="140.5" height="30" as="geometry" />
        </mxCell>
        <mxCell id="qA517OyjisjvjETu6iN_-4" value="" style="rounded=0;whiteSpace=wrap;html=1;fillColor=none;dashed=1;" vertex="1" parent="1">
          <mxGeometry x="80" y="120" width="240" height="360" as="geometry" />
        </mxCell>
        <mxCell id="qA517OyjisjvjETu6iN_-5" value="" style="image;aspect=fixed;html=1;points=[];align=center;fontSize=12;image=img/lib/azure2/networking/Subnet.svg;" vertex="1" parent="1">
          <mxGeometry x="80" y="100" width="33.4" height="20" as="geometry" />
        </mxCell>
        <mxCell id="qA517OyjisjvjETu6iN_-6" value="Azure Subnet" style="text;html=1;align=center;verticalAlign=middle;whiteSpace=wrap;rounded=0;fontSize=14;" vertex="1" parent="1">
          <mxGeometry x="120" y="90" width="90" height="30" as="geometry" />
        </mxCell>
        <mxCell id="qA517OyjisjvjETu6iN_-7" value="" style="rounded=0;whiteSpace=wrap;html=1;fillColor=none;dashed=1;dashPattern=8 8;strokeColor=light-dark(#800000, #ededed);strokeWidth=2;" vertex="1" parent="1">
          <mxGeometry x="120" y="200" width="160" height="200" as="geometry" />
        </mxCell>
        <mxCell id="qA517OyjisjvjETu6iN_-9" value="Azure Kubernetes Service (AKS)" style="text;html=1;align=center;verticalAlign=middle;whiteSpace=wrap;rounded=0;fontSize=14;" vertex="1" parent="1">
          <mxGeometry x="120" y="240" width="150" height="30" as="geometry" />
        </mxCell>
        <mxCell id="qA517OyjisjvjETu6iN_-10" value="" style="image;aspect=fixed;html=1;points=[];align=center;fontSize=12;image=img/lib/azure2/compute/Kubernetes_Services.svg;" vertex="1" parent="1">
          <mxGeometry x="171.66" y="290" width="56.67" height="50" as="geometry" />
        </mxCell>
        <mxCell id="qA517OyjisjvjETu6iN_-11" value="" style="rounded=0;whiteSpace=wrap;html=1;fillColor=none;dashed=1;" vertex="1" parent="1">
          <mxGeometry x="560" y="40" width="440" height="520" as="geometry" />
        </mxCell>
        <mxCell id="qA517OyjisjvjETu6iN_-12" value="" style="image;aspect=fixed;html=1;points=[];align=center;fontSize=12;image=img/lib/azure2/management_governance/Monitor.svg;" vertex="1" parent="1">
          <mxGeometry x="565" y="8" width="30" height="30" as="geometry" />
        </mxCell>
        <mxCell id="qA517OyjisjvjETu6iN_-13" value="Azure Monitor" style="text;html=1;align=center;verticalAlign=middle;whiteSpace=wrap;rounded=0;fontSize=14;" vertex="1" parent="1">
          <mxGeometry x="600" y="9" width="120" height="30" as="geometry" />
        </mxCell>
        <mxCell id="qA517OyjisjvjETu6iN_-14" value="" style="rounded=0;whiteSpace=wrap;html=1;fillColor=none;dashed=1;" vertex="1" parent="1">
          <mxGeometry x="600" y="80" width="160" height="440" as="geometry" />
        </mxCell>
        <mxCell id="qA517OyjisjvjETu6iN_-15" value="" style="rounded=0;whiteSpace=wrap;html=1;fillColor=none;dashed=1;" vertex="1" parent="1">
          <mxGeometry x="800" y="80" width="160" height="440" as="geometry" />
        </mxCell>
        <mxCell id="qA517OyjisjvjETu6iN_-16" value="&lt;b&gt;NETWORK LEVEL&lt;/b&gt;" style="text;html=1;align=center;verticalAlign=middle;whiteSpace=wrap;rounded=0;fontSize=14;fillColor=#d5e8d4;strokeColor=#82b366;" vertex="1" parent="1">
          <mxGeometry x="120" y="50" width="160" height="30" as="geometry" />
        </mxCell>
        <mxCell id="qA517OyjisjvjETu6iN_-17" value="&lt;font style=&quot;font-size: 14px;&quot;&gt;Apps/Workload&lt;/font&gt;" style="rounded=1;whiteSpace=wrap;html=1;" vertex="1" parent="1">
          <mxGeometry x="400" y="200" width="120" height="40" as="geometry" />
        </mxCell>
        <mxCell id="qA517OyjisjvjETu6iN_-18" value="&lt;font style=&quot;font-size: 14px;&quot;&gt;Infrastructure&lt;/font&gt;" style="rounded=1;whiteSpace=wrap;html=1;" vertex="1" parent="1">
          <mxGeometry x="400" y="254" width="120" height="40" as="geometry" />
        </mxCell>
        <mxCell id="qA517OyjisjvjETu6iN_-19" value="&lt;font style=&quot;font-size: 14px;&quot;&gt;Azure Platform&lt;/font&gt;" style="rounded=1;whiteSpace=wrap;html=1;" vertex="1" parent="1">
          <mxGeometry x="400" y="306" width="120" height="40" as="geometry" />
        </mxCell>
        <mxCell id="qA517OyjisjvjETu6iN_-20" value="&lt;font style=&quot;font-size: 14px;&quot;&gt;Custom Sources&lt;/font&gt;" style="rounded=1;whiteSpace=wrap;html=1;" vertex="1" parent="1">
          <mxGeometry x="400" y="360" width="120" height="40" as="geometry" />
        </mxCell>
        <mxCell id="qA517OyjisjvjETu6iN_-21" value="" style="shape=curlyBracket;whiteSpace=wrap;html=1;rounded=1;flipH=1;labelPosition=right;verticalLabelPosition=middle;align=left;verticalAlign=middle;" vertex="1" parent="1">
          <mxGeometry x="530" y="200" width="20" height="200" as="geometry" />
        </mxCell>
        <mxCell id="qA517OyjisjvjETu6iN_-22" value="Consumption" style="text;html=1;align=center;verticalAlign=middle;whiteSpace=wrap;rounded=0;fontSize=14;" vertex="1" parent="1">
          <mxGeometry x="820" y="50" width="120" height="30" as="geometry" />
        </mxCell>
        <mxCell id="qA517OyjisjvjETu6iN_-23" value="Data Platform" style="text;html=1;align=center;verticalAlign=middle;whiteSpace=wrap;rounded=0;fontSize=14;" vertex="1" parent="1">
          <mxGeometry x="620" y="50" width="120" height="30" as="geometry" />
        </mxCell>
        <mxCell id="qA517OyjisjvjETu6iN_-24" value="" style="rounded=1;whiteSpace=wrap;html=1;fillColor=none;strokeWidth=2;" vertex="1" parent="1">
          <mxGeometry x="640" y="100" width="80" height="140" as="geometry" />
        </mxCell>
        <mxCell id="qA517OyjisjvjETu6iN_-25" value="" style="rounded=1;whiteSpace=wrap;html=1;strokeWidth=2;" vertex="1" parent="1">
          <mxGeometry x="640" y="254" width="80" height="76" as="geometry" />
        </mxCell>
        <mxCell id="qA517OyjisjvjETu6iN_-27" value="" style="rounded=1;whiteSpace=wrap;html=1;strokeWidth=2;" vertex="1" parent="1">
          <mxGeometry x="640" y="340" width="80" height="76" as="geometry" />
        </mxCell>
        <mxCell id="qA517OyjisjvjETu6iN_-28" value="" style="rounded=1;whiteSpace=wrap;html=1;strokeWidth=2;" vertex="1" parent="1">
          <mxGeometry x="640" y="430" width="80" height="76" as="geometry" />
        </mxCell>
        <mxCell id="qA517OyjisjvjETu6iN_-29" value="Metrics" style="text;html=1;align=center;verticalAlign=middle;whiteSpace=wrap;rounded=0;fontSize=14;" vertex="1" parent="1">
          <mxGeometry x="649" y="100" width="60" height="30" as="geometry" />
        </mxCell>
      </root>
    </mxGraphModel>
  </diagram>
</mxfile>
